#!OML:ASF Z:\Project 1\Capture day 1\Session 1\Male1.ASF
:FULLY-SPECIFIED
:DEGREES
1482
root 23.7706 16.4334 -5.18392 -169.082 35.0114 -175.85
lowerback -4.17312 -3.05002 -2.18135
upperback 0.257312 -4.00495 2.31145
thorax 2.91904 -2.04098 3.33112
lowerneck -17.0052 -1.79532 0.875075
upperneck -2.63773 -2.14893 2.36614
head 2.08605 -0.789119 0.472313
rclavicle 7.01958e-015 2.20651e-014
rhumerus 60.4821 8.94952 -56.12
rradius 44.1765
rwrist 36.2288
rhand -50.4123 69.1203
rfingers 7.12502
rthumb -22.9848 40.4706
lclavicle 7.01958e-015 2.20651e-014
lhumerus 71.9274 -21.3237 51.7967
lradius 38.6167
lwrist -27.63
lhand -42.947 -298.718
lfingers 7.12502
lthumb -15.8073 -1170.66
rfemur -20.6092 -5.85015 27.203
rtibia 21.3944
rfoot -9.53874 -3.15124
rtoes -9.21145
lfemur 12.7468 -5.14467 -10.2683
ltibia 10.9609
lfoot -0.908636 -0.0514944
ltoes 36.3365
1483
root 23.7289 16.4298 -5.15435 -169.209 34.8036 -175.913
lowerback -4.20265 -2.94472 -2.2406
upperback 0.179244 -3.85815 2.17381
thorax 2.83787 -1.96603 3.23387
lowerneck -16.412 -1.89266 1.36651
upperneck -2.96452 -2.34508 2.26112
head 1.86067 -0.901094 0.344297
rclavicle 6.41081e-015 -8.34896e-015
rhumerus 58.1758 9.90235 -55.1201
rradius 45.9179
rwrist 34.5783
rhand -49.7511 70.2316
rfingers 7.12502
rthumb -22.3502 41.5043
lclavicle 6.41081e-015 -8.34896e-015
lhumerus 70.4866 -22.981 51.876
lradius 39.3427
lwrist -27.3559
lhand -41.8123 -300.058
lfingers 7.12502
lthumb -14.7143 -1350.6
rfemur -20.5887 -5.87476 27.0902
rtibia 21.2332
rfoot -9.18862 -3.37142
rtoes -9.81888
lfemur 12.5402 -5.05476 -10.3527
ltibia 11.2515
lfoot -1.56942 -0.0405192
ltoes 35.89
1484
root 23.6891 16.4244 -5.12457 -169.271 34.5433 -175.767
lowerback -4.24505 -2.82056 -2.16606
upperback 0.189367 -3.69438 2.1224
thorax 2.85147 -1.88311 3.1489
lowerneck -16.32 -1.89866 1.47475
upperneck -2.90573 -2.37591 2.26707
head 1.86288 -0.918285 0.325902
rclavicle -4.34841e-015 1.25234e-014
rhumerus 55.832 10.3332 -55.3415
rradius 46.5742
rwrist 35.249
rhand -49.3417 73.4513
rfingers 7.12502
rthumb -21.9572 44.6775
lclavicle -4.34841e-015 1.25234e-014
lhumerus 69.0861 -24.7009 52.6004
lradius 39.8806
lwrist -27.5106
lhand -42.3456 -299.966
lfingers 7.12502
lthumb -15.2281 -1350.55
rfemur -20.4998 -5.79672 27.1276
rtibia 21.0265
rfoot -8.78595 -3.61923
rtoes -9.11921
lfemur 12.3832 -5.05599 -10.2512
ltibia 11.5596
lfoot -2.31789 -0.179042
ltoes 35.1581
1485
root 23.6521 16.4162 -5.09414 -169.224 34.2467 -175.159
lowerback -4.18089 -2.72869 -1.81664
upperback 0.260493 -3.59066 2.25497
thorax 2.86817 -1.8267 3.09913
lowerneck -16.3714 -1.90351 1.27501
upperneck -2.75788 -2.36056 2.45485
head 1.92841 -0.902208 0.421039
rclavicle -3.762e-014 -1.98785e-015
rhumerus 53.549 11.2395 -55.5391
rradius 47.6495
rwrist 34.5457
rhand -50.3307 74.2461
rfingers 7.12502
rthumb -22.9065 45.5867
lclavicle -3.762e-014 -1.98785e-015
lhumerus 67.7761 -26.362 52.0912
lradius 40.2802
lwrist -26.6456
lhand -43.879 -298.325
lfingers 7.12502
lthumb -16.7047 -1170.98
rfemur -20.2756 -5.71049 27.5803
rtibia 20.8499
rfoot -8.4132 -3.80965
rtoes -8.64061
lfemur 12.4989 -5.25694 -9.74791
ltibia 11.7967
lfoot -3.11585 -0.0728096
ltoes 35.9916
1486
root 23.6139 16.4083 -5.06279 -169.298 34.0623 -174.895
lowerback -4.16505 -2.62645 -1.7814
upperback 0.28018 -3.45636 2.3084
thorax 2.87152 -1.7593 3.14475
lowerneck -15.9279 -1.87264 1.50139
upperneck -3.05334 -2.33513 2.28709
head 1.74333 -0.902805 0.333626
rclavicle 4.58447e-014 1.78906e-015
rhumerus 51.2031 12.239 -55.8651
rradius 48.8222
rwrist 32.7015
rhand -48.1514 75.7337
rfingers 7.12502
rthumb -20.8139 46.83
lclavicle 4.58447e-014 1.78906e-015
lhumerus 66.1106 -28.0323 52.5387
lradius 40.5482
lwrist -26.5296
lhand -43.8014 -299.851
lfingers 7.12502
lthumb -16.63 -1350.54
rfemur -20.1403 -5.8676 27.7844
rtibia 20.6585
rfoot -8.09473 -3.83915
rtoes -10.1442
lfemur 12.5104 -5.17844 -9.52603
ltibia 12.0655
lfoot -3.82114 0.0525615
ltoes 36.5717
1487
root 23.5668 16.4029 -5.0336 -169.481 33.9408 -175.018
lowerback -4.08524 -2.43607 -1.68595
upperback 0.162167 -3.20237 2.04472
thorax 2.66612 -1.62688 2.84338
lowerneck -15.3297 -1.91013 2.06656
upperneck -3.3228 -2.45672 2.08035
head 1.53605 -0.983163 0.16928
rclavicle 6.68662e-014 -3.3197e-014
rhumerus 48.4173 13.1802 -56.3509
rradius 49.5027
rwrist 32.1448
rhand -48.6221 76.9794
rfingers 7.12502
rthumb -21.266 48.1261
lclavicle 6.68662e-014 -3.3197e-014
lhumerus 64.1451 -30.0476 52.9819
lradius 40.9653
lwrist -26.4617
lhand -42.8954 -301.945
lfingers 7.12502
lthumb -15.7576 -1352.57
rfemur -20.1446 -6.32349 27.6886
rtibia 20.4535
rfoot -7.89772 -3.69702
rtoes -11.2546
lfemur 12.3294 -4.70166 -9.59924
ltibia 12.3487
lfoot -4.41735 -0.127859
ltoes 36.4632
1488
root 23.5078 16.397 -5.00864 -169.611 33.7538 -174.99
lowerback -3.9389 -2.35146 -1.32351
upperback 0.0913481 -3.10362 1.92819
thorax 2.47848 -1.56936 2.53467
lowerneck -15.1491 -1.93925 1.91313
upperneck -3.26295 -2.47787 2.24109
head 1.52934 -0.991451 0.246505
rclavicle 2.46493e-014 4.17448e-015
rhumerus 45.8397 14.2425 -56.7047
rradius 49.662
rwrist 32.5299
rhand -50.0257 76.5663
rfingers 7.12502
rthumb -22.6138 47.8709
lclavicle 2.46493e-014 4.17448e-015
lhumerus 61.6888 -31.7046 54.1008
lradius 41.135
lwrist -26.6341
lhand -42.2094 -302.156
lfingers 7.12502
lthumb -15.0969 -1352.73
rfemur -20.1262 -6.88131 27.7157
rtibia 20.3038
rfoot -7.81492 -3.47877
rtoes -13.5822
lfemur 12.2458 -4.44134 -9.62648
ltibia 12.5033
lfoot -5.08288 -0.217551
ltoes 35.9722
1489
root 23.4478 16.3907 -4.98359 -169.706 33.5563 -174.934
lowerback -3.70137 -2.76779 -0.675559
upperback 0.067526 -3.68571 1.91154
thorax 2.31069 -1.84971 2.13014
lowerneck -15.9025 -1.51614 1.2073
upperneck -2.47637 -1.86754 2.55197
head 1.9405 -0.666375 0.497747
rclavicle -7.73769e-014 -7.95139e-015
rhumerus 44.222 16.1628 -57.7953
rradius 49.1362
rwrist 33.3938
rhand -49.4292 78.7341
rfingers 7.12502
rthumb -22.0412 49.9702
lclavicle -7.73769e-014 -7.95139e-015
lhumerus 58.2016 -32.0515 55.836
lradius 40.8828
lwrist -27.0243
lhand -41.8026 -300.752
lfingers 7.12502
lthumb -14.7049 -1351.29
rfemur -20.1514 -7.11128 27.6475
rtibia 20.2019
rfoot -7.6847 -3.32592
rtoes -12.4406
lfemur 12.2695 -4.78959 -9.80965
ltibia 12.5237
lfoot -5.96555 0.0719947
ltoes 35.3023
1490
root 23.4063 16.3841 -4.95378 -169.854 33.4141 -174.86
lowerback -3.95636 -2.43477 -0.921434
upperback 0.136393 -3.2315 1.80261
thorax 2.51183 -1.62798 2.17022
lowerneck -15.2359 -1.5829 2.16827
upperneck -2.65566 -2.09639 2.07029
head 1.74297 -0.812737 0.167083
rclavicle -1.92573e-014 -1.07344e-014
rhumerus 41.1199 16.0674 -59.2387
rradius 48.2821
rwrist 33.8933
rhand -48.3176 79.0096
rfingers 7.12502
rthumb -20.9735 50.1236
lclavicle -1.92573e-014 -1.07344e-014
lhumerus 55.976 -34.1862 57.5178
lradius 40.6631
lwrist -26.9877
lhand -42.1134 -299.332
lfingers 7.12502
lthumb -15.0044 -1530.1
rfemur -20.0663 -6.85194 27.5587
rtibia 20.0851
rfoot -7.41018 -3.62249
rtoes -10.9673
lfemur 12.4363 -5.23366 -9.96045
ltibia 12.4861
lfoot -6.8362 0.541561
ltoes 35.2018
